<svg xmlns="http://www.w3.org/2000/svg"  viewBox="0 0 32 32" width="32px" height="32px" clip-rule="evenodd" baseProfile="basic"><path fill="#26659f" fill-rule="evenodd" d="M4.003,18.003v6h2v2h2v2	h2v2h4v-2h4v2h4v-2h2v-2h2v-2h2v-2h-2v-2h-2v-4h2v-2h2v-2h-4l-1,1h-17L4.003,18.003z" clip-rule="evenodd"/><path fill="#589bd4" fill-rule="evenodd" d="M4.003,18.003v-6h2v-2h8	v2h4v-2h8v2h-2v2h-2v2h-2v2H4.003z" clip-rule="evenodd"/><path fill="#589bd4" fill-rule="evenodd" d="M16.003,8.003v-2h2v-2h2	v-2h2v4h-2v2H16.003z" clip-rule="evenodd"/></svg>