<svg height="32" viewBox="0 0 32 32" width="32" xmlns="http://www.w3.org/2000/svg"><path d="m5.404 30.542v-1.031q0-.356.018-.711t.053-.676q.071-.356.196-.782t.338-.889q.249-.427.622-.693t.871-.302l1.28-.107 1.387-.142 2.631-.284 3.093-.107q.391 0 .836.018t.942.018 1.031.053 1.067.124q.604 0 1.28.036t1.316.142q.676.071 1.262.142t1.049.142q.462.036.836.356t.587.889q.036.107.124.356t.16.569.124.676.053.747l.036.711v.747h-21.191zm20.623-18.809-.462-.711-.142-.889q0-.498.196-.96t.587-.818q.356-.391.818-.604t.996-.213q.498 0 .942.196t.836.587q.427.356.64.836t.213.978-.178.942-.498.764q-.32.356-.747.587t-.924.302l-3.911 10.667-4.551-.427-3.876-.178-3.093.107-2.631.249-1.387.142-1.28.107-3.84-10.702q-.427 0-.853-.178t-.782-.569q-.391-.391-.587-.853t-.196-.96.196-.96.587-.818q.391-.427.871-.64t.978-.213.942.196.836.551q.391.391.604.871t.213 1.013v.107l-.142.569q-.071.178-.196.409t-.302.48l3.769 4.267 1.564-7.573q-.391 0-.747-.196t-.64-.587q-.32-.391-.48-.836t-.16-.942q0-.569.213-1.084t.604-.871q.427-.391.907-.604t1.013-.213q.569 0 1.049.196t.907.587q.391.356.604.871t.213 1.12l-.036.249v.249q-.036.213-.142.462t-.249.462-.356.427-.498.356l2.596 7.502 2.56-7.502q-.213-.142-.427-.409t-.356-.516q-.142-.32-.231-.64t-.089-.64q0-.569.213-1.084t.64-.871q.391-.391.871-.604t1.049-.213q.533 0 1.031.196t.889.587q.427.356.64.871t.213 1.12q0 .498-.142.889t-.391.711q-.249.284-.587.533t-.8.427l1.28 7.573z"/></svg>