<svg xmlns="http://www.w3.org/2000/svg"  viewBox="0 0 32 32" width="32px" height="32px" clip-rule="evenodd" baseProfile="basic"><path fill="#b6b5b5" fill-rule="evenodd" d="M9.003,4.003h5l2,1l2-1	h5v4h-14V4.003z" clip-rule="evenodd"/><path fill="#f18f06" fill-rule="evenodd" d="M15.003,13.003v-7l-1-1	l1-1h2l1,1l-1,1v7H15.003z" clip-rule="evenodd"/><path fill="#589bd4" fill-rule="evenodd" d="M11.003,4.003l-0.001,2	h4.001V2.004l-2-0.001L11.003,4.003z" clip-rule="evenodd"/><path fill="#f18f06" fill-rule="evenodd" d="M27.003,15.003v-3h-4	l-2,2h4L27.003,15.003z" clip-rule="evenodd"/><path fill="#f18f06" fill-rule="evenodd" d="M5.003,15.003v-3h4l2,2	h-4L5.003,15.003z" clip-rule="evenodd"/><path fill="#b6b5b5" fill-rule="evenodd" d="M8.003,23.003v3.001	h4.999v-3.001H8.003z" clip-rule="evenodd"/><path fill="#b6b5b5" fill-rule="evenodd" d="M19.003,23.001v3.001	h4.999v-3.001H19.003z" clip-rule="evenodd"/><path fill="#f18f06" fill-rule="evenodd" d="M9.003,20.003v-4l7-2	l7,2v4l1,2l-1,2h-14l-1-2L9.003,20.003z" clip-rule="evenodd"/><path fill="#b6b5b5" fill-rule="evenodd" d="M9.001,12.004v3.999	h14.001v-3.999H9.001z" clip-rule="evenodd"/><path fill="#b6b5b5" fill-rule="evenodd" d="M3.001,14.004v1.999	h4.001v-1.999H3.001z" clip-rule="evenodd"/><path fill="#b6b5b5" fill-rule="evenodd" d="M25.001,14.004v1.999	h4.001v-1.999H25.001z" clip-rule="evenodd"/><path fill="#706d67" fill-rule="evenodd" d="M3.001,20.004v9.999	h6.001v-9.999H3.001z" clip-rule="evenodd"/><path fill="#706d67" fill-rule="evenodd" d="M23.001,20.004v9.999	h6.001v-9.999H23.001z" clip-rule="evenodd"/><path fill="#706d67" fill-rule="evenodd" d="M13.001,20.004v1.999	h4.001v-1.999H13.001z" clip-rule="evenodd"/><path fill="#e41e2f" fill-rule="evenodd" d="M19.001,20.004v1.999	h2.001v-1.999H19.001z" clip-rule="evenodd"/><path fill="#e6e5e5" fill-rule="evenodd" d="M11.001,2.004v1.999	h2.001V2.004H11.001z" clip-rule="evenodd"/><path fill="#589bd4" fill-rule="evenodd" d="M17.004,4.003l-0.001,2	h4.001V2.004l-2-0.001L17.004,4.003z" clip-rule="evenodd"/><path fill="#e6e5e5" fill-rule="evenodd" d="M17.003,2.004v1.999	h2.001V2.004H17.003z" clip-rule="evenodd"/></svg>