<svg xmlns="http://www.w3.org/2000/svg"  viewBox="0 0 32 32" width="32px" height="32px"><polygon fill="#085195" points="28,8 28,24 28,26 26,26 26,28 24,28 8,28 6,28 6,26 4,26 4,24 4,8 4,6 6,6 6,4 8,4 24,4 26,4 26,6 28,6"/><rect width="2" height="12" x="8" y="10" fill="#589bd4" transform="rotate(-180 9 16)"/><rect width="2" height="5" x="10.5" y="8.5" fill="#589bd4" transform="rotate(-90 11.5 11)"/><rect width="2" height="5" x="10.5" y="14.5" fill="#589bd4" transform="rotate(-90 11.5 17)"/><rect width="4" height="2" x="13" y="13" fill="#589bd4" transform="rotate(-90 15 14)"/><rect width="4" height="2" x="20" y="12" fill="#589bd4"/><rect width="4" height="2" x="18" y="20" fill="#589bd4"/><rect width="2" height="2" x="20" y="16" fill="#589bd4"/><rect width="2" height="2" x="18" y="14" fill="#589bd4"/><rect width="1" height="1" x="21" y="17" fill="#589bd4"/><rect width="2" height="2" x="22" y="18" fill="#589bd4"/><rect width="2" height="20" x="26" y="6" fill="#589bd4"/><rect width="2" height="20" x="4" y="6" fill="#589bd4"/><rect width="2" height="20" x="15" y="-5" fill="#589bd4" transform="rotate(90 16 5)"/><rect width="2" height="20" x="15" y="17" fill="#589bd4" transform="rotate(90 16 27)"/></svg>